<svg width="16" height="20" viewBox="0 0 16 20" fill="none" xmlns="http://www.w3.org/2000/svg">
<path d="M8 4V0L3 5L8 10V6C11.31 6 14 8.69 14 12C14 15.31 11.31 18 8 18C4.69 18 2 15.31 2 12H0C0 16.42 3.58 20 8 20C12.42 20 16 16.42 16 12C16 7.58 12.42 4 8 4Z" fill="white"/>
<path d="M6.90004 15H6.05004V11.74L5.04004 12.05V11.36L6.81004 10.73H6.90004V15ZM11.18 13.24C11.18 13.56 11.15 13.84 11.08 14.06C11.01 14.28 10.91 14.48 10.79 14.63C10.67 14.78 10.51 14.89 10.34 14.96C10.17 15.03 9.97004 15.06 9.75004 15.06C9.53004 15.06 9.34004 15.03 9.16004 14.96C8.98004 14.89 8.83004 14.78 8.70004 14.63C8.57004 14.48 8.47004 14.29 8.40004 14.06C8.33004 13.83 8.29004 13.56 8.29004 13.24V12.5C8.29004 12.18 8.32004 11.9 8.39004 11.68C8.46004 11.46 8.56004 11.26 8.68004 11.11C8.80004 10.96 8.96004 10.85 9.13004 10.78C9.30004 10.71 9.50004 10.68 9.72004 10.68C9.94004 10.68 10.13 10.71 10.31 10.78C10.49 10.85 10.64 10.96 10.77 11.11C10.9 11.26 11 11.45 11.07 11.68C11.14 11.91 11.18 12.18 11.18 12.5V13.24ZM10.33 12.38C10.33 12.19 10.32 12.03 10.29 11.9C10.26 11.77 10.22 11.67 10.17 11.59C10.12 11.51 10.06 11.45 9.98004 11.42C9.90004 11.39 9.82004 11.37 9.73004 11.37C9.64004 11.37 9.55004 11.39 9.48004 11.42C9.41004 11.45 9.34004 11.51 9.29004 11.59C9.24004 11.67 9.20004 11.77 9.17004 11.9C9.14004 12.03 9.13004 12.19 9.13004 12.38V13.35C9.13004 13.54 9.14004 13.7 9.17004 13.83C9.20004 13.96 9.24004 14.07 9.29004 14.15C9.34004 14.23 9.40004 14.29 9.48004 14.32C9.56004 14.35 9.64004 14.37 9.73004 14.37C9.82004 14.37 9.91004 14.35 9.98004 14.32C10.05 14.29 10.12 14.23 10.17 14.15C10.22 14.07 10.26 13.96 10.28 13.83C10.3 13.7 10.32 13.54 10.32 13.35V12.38H10.33Z" fill="#F2F2F2"/>
</svg>
