<svg width="34" height="34" viewBox="0 0 34 34" fill="none" xmlns="http://www.w3.org/2000/svg">
<path d="M17 7.08333V2.83333L11.3333 8.5L17 14.1667V9.91667C21.6892 9.91667 25.5 13.7275 25.5 18.4167C25.5 22.6242 22.4258 26.1092 18.4167 26.7892V29.6508C24.0125 28.9567 28.3333 24.1967 28.3333 18.4167C28.3333 12.155 23.2617 7.08333 17 7.08333ZM8.5 18.4167C8.5 16.0792 9.44917 13.9542 10.9933 12.41L8.98167 10.3983C6.94167 12.4525 5.66667 15.2858 5.66667 18.4167C5.66667 24.1967 9.9875 28.9567 15.5833 29.6508V26.7892C11.5742 26.1092 8.5 22.6242 8.5 18.4167Z" fill="#F2F2F2"/>
</svg>
